# xmcd
#
# Track frame offsets: 
#        150
#        17905
#        37395
#        51290
#        75840
#        93277
#        115867
#        135392
#        156822
#        176337
#        197025
#        215720
#
# Disc length: 3104 seconds
#
# Revision: 2
# Processed by: cddbd v1.5.2PL0 Copyright (c) Steve Scherf et al.
# Submitted via: ExactAudioCopy v0.99pb4
#
DISCID=9c0c1e0c
DTITLE=John Primer - Knocking At Your Door
DYEAR=2000
DGENRE=Blues
TTITLE0=Knocking At Your Door
TTITLE1=Change Your Evil ways
TTITLE2=Lonely Days And Nights
TTITLE3=Excited By Your Charms
TTITLE4=Hard Working Woman
TTITLE5=Brutal Hearted Woman
TTITLE6=Everytime You Touch Me
TTITLE7=That's Alright
TTITLE8=A Woman Was Made To Be Loved
TTITLE9=I Been Dogged Around
TTITLE10=I Want To Know
TTITLE11=The Kiss Of Fire
EXTD=
EXTT0=
EXTT1=
EXTT2=
EXTT3=
EXTT4=
EXTT5=
EXTT6=
EXTT7=
EXTT8=
EXTT9=
EXTT10=
EXTT11=
PLAYORDER=
